USFL
nRows=231
nColumns=2
inDegrees=yes
endheader
time	tib_ant_r	
3.09375	 81.863324	
3.12702	 81.878331	
3.16028	 81.874884	
3.19355	 81.863361	
3.22681	 81.846965	
3.26008	 81.847939	
3.29335	 81.842156	
3.32661	 81.848367	
3.35988	 81.839560	
3.39315	 81.844800	
3.42641	 81.837203	
3.45968	 81.878043	
3.49294	 81.876332	
3.52621	 81.866637	
3.55948	 81.852229	
3.59274	 81.863471	
3.62601	 81.846564	
3.65927	 81.837577	
3.69254	 81.856765	
3.72581	 81.839567	
3.75907	 81.828214	
3.79234	 81.816660	
3.8256	 81.810529	
3.85887	 81.807928	
3.89214	 81.811127	
3.9254	 81.814001	
3.95867	 81.825067	
3.99194	 81.817481	
4.0252	 81.822726	
4.05847	 81.828988	
4.09173	 81.792342	
4.125	 81.803003	
4.15827	 81.780726	
4.19153	 81.783496	
4.2248	 81.806980	
4.25806	 81.811495	
4.29133	 81.813731	
4.3246	 81.796303	
4.35786	 81.788133	
4.39113	 81.785182	
4.4244	 81.804125	
4.45766	 81.789629	
4.49093	 81.786914	
4.52419	 81.805804	
4.55746	 81.798321	
4.59073	 81.789118	
4.62399	 81.815334	
4.65726	 81.821489	
4.69052	 81.812993	
4.72379	 81.874835	
4.75706	 81.913035	
4.79032	 82.038727	
4.82359	 81.840431	
4.85685	 81.618407	
4.89012	 81.400393	
4.92339	 81.367882	
4.95665	 81.310457	
4.98992	 81.129352	
5.02319	 81.048058	
5.05645	 81.075120	
5.08972	 80.832651	
5.12298	 80.986439	
5.15625	 80.943306	
5.18952	 80.983344	
5.22278	 80.916514	
5.25605	 80.594129	
5.28931	 80.547033	
5.32258	 80.569823	
5.35585	 80.260521	
5.38911	 80.203401	
5.42238	 79.877545	
5.45565	 79.501778	
5.48891	 79.514719	
5.52218	 79.093822	
5.55544	 78.835167	
5.58871	 78.676074	
5.62198	 77.815355	
5.65524	 78.112121	
5.68851	 77.795530	
5.72177	 77.510121	
5.75504	 77.387777	
5.78831	 77.143204	
5.82157	 76.809304	
5.85484	 76.709767	
5.8881	 76.364649	
5.92137	 76.144146	
5.95464	 75.801387	
5.9879	 75.409137	
6.02117	 75.073806	
6.05444	 74.939574	
6.0877	 74.856314	
6.12097	 74.848508	
6.15423	 74.872983	
6.1875	 74.681658	
6.22077	 74.714662	
6.25403	 74.637215	
6.2873	 74.521987	
6.32056	 74.464499	
6.35383	 74.482511	
6.3871	 74.222402	
6.42036	 74.141601	
6.45363	 74.003924	
6.4869	 73.999662	
6.52016	 74.223454	
6.55343	 74.189938	
6.58669	 74.131021	
6.61996	 74.146363	
6.65323	 74.068587	
6.68649	 74.156898	
6.71976	 74.008280	
6.75302	 73.871557	
6.78629	 73.999009	
6.81956	 73.820900	
6.85282	 73.741923	
6.88609	 73.618444	
6.91935	 73.374888	
6.95262	 73.269327	
6.98589	 73.048605	
7.01915	 72.906631	
7.05242	 73.150310	
7.08569	 73.285701	
7.11895	 73.462517	
7.15222	 73.606851	
7.18548	 73.511029	
7.21875	 73.433846	
7.25202	 73.410124	
7.28528	 73.529231	
7.31855	 73.531678	
7.35181	 73.508044	
7.38508	 73.611592	
7.41835	 73.532086	
7.45161	 73.610505	
7.48488	 73.496277	
7.51815	 73.489078	
7.55141	 73.642212	
7.58468	 73.455140	
7.61794	 73.562412	
7.65121	 73.652119	
7.68448	 73.557488	
7.71774	 73.745875	
7.75101	 73.649346	
7.78427	 73.636053	
7.81754	 73.682984	
7.85081	 73.725500	
7.88407	 73.773724	
7.91734	 73.810438	
7.9506	 73.941664	
7.98387	 74.029966	
8.01714	 73.931979	
8.0504	 73.917887	
8.08367	 73.901060	
8.11694	 73.833564	
8.1502	 73.854494	
8.18347	 73.975948	
8.21673	 74.036326	
8.25	 74.093798	
8.28327	 74.107264	
8.31653	 74.120938	
8.3498	 74.120226	
8.38306	 74.099236	
8.41633	 74.062520	
8.4496	 74.027459	
8.48286	 74.183394	
8.51613	 74.158035	
8.5494	 74.261860	
8.58266	 74.279080	
8.61593	 74.282312	
8.64919	 74.298433	
8.68246	 74.269464	
8.71573	 74.274133	
8.74899	 74.270027	
8.78226	 74.215812	
8.81552	 74.175623	
8.84879	 74.223396	
8.88206	 74.212471	
8.91532	 74.240252	
8.94859	 74.175514	
8.98185	 74.156863	
9.01512	 74.329115	
9.04839	 74.334452	
9.08165	 74.348757	
9.11492	 74.348635	
9.14819	 74.291507	
9.18145	 74.275842	
9.21472	 74.473787	
9.24798	 74.479269	
9.28125	 74.519800	
9.31452	 74.434725	
9.34778	 74.386828	
9.38105	 74.293273	
9.41431	 74.281080	
9.44758	 74.247752	
9.48085	 74.312183	
9.51411	 74.371796	
9.54738	 74.398853	
9.58065	 74.458245	
9.61391	 74.402553	
9.64718	 74.363249	
9.68044	 74.446261	
9.71371	 74.482719	
9.74698	 74.624282	
9.78024	 74.667165	
9.81351	 74.663286	
9.84677	 74.717919	
9.88004	 74.716212	
9.91331	 74.729921	
9.94657	 75.115646	
9.97984	 75.082840	
10.0131	 75.116247	
10.0464	 75.117912	
10.0796	 75.123687	
10.1129	 75.404416	
10.1462	 75.457878	
10.1794	 75.428260	
10.2127	 75.654146	
10.246	 76.007467	
10.2792	 75.814279	
10.3125	 75.747223	
10.3458	 75.720430	
10.379	 75.423633	
10.4123	 75.160758	
10.4456	 75.150115	
10.4788	 75.327522	
10.5121	 75.684604	
10.5454	 75.763242	
10.5786	 75.924891	
10.6119	 76.240387	
10.6452	 76.526486	
10.6784	 76.683305	
10.7117	 76.770629	
10.745	 77.144332	
